<svg xmlns="http://www.w3.org/2000/svg" width="24" height="24" viewBox="0 0 512 512" style="enable-background:new 0 0 512 512" xml:space="preserve">
  <path d="m270.157 506.134.02-.018 104-104.504c7.79-7.83 7.761-20.492-.069-28.285-7.829-7.792-20.492-7.762-28.284.067L276 443.558V20c0-11.046-8.954-20-20-20s-20 8.954-20 20v423.557l-69.824-70.162c-7.792-7.83-20.455-7.86-28.284-.067-7.83 7.793-7.858 20.457-.068 28.285l104 104.504c.006.006.013.01.02.018 7.817 7.833 20.521 7.808 28.313-.001z" fill="#fff" data-original="#000000"
    xmlns="http://www.w3.org/2000/svg"/>
</svg>